# xmcd
#
# Track frame offsets:
#	150
#	17512
#	32762
#	42625
#	55800
#	70512
#	82400
#	94262
#	109775
#	128812
#
# Disc length: 1869 seconds
#
# Revision: 1
# Processed by: cddbd v1.4PL0 Copyright (c) Steve Scherf et al.
# Submitted via: audiograbber 1.82.00
#
DISCID=84074b0a
DTITLE=Kenny Rogers - Ruby, Don't Take Your Love To Town
DYEAR=1900
DGENRE=
TTITLE0=Somthing's Burning
TTITLE1=For The Good Times
TTITLE2=Where Does Rose Go-
TTITLE3=Ruby (Don't Take Your Love To Town)
TTITLE4=All God's Lovely Children
TTITLE5=Elvira
TTITLE6=What Am I Gonna Do-
TTITLE7=Tulsa Turnaround
TTITLE8=Lay It Down
TTITLE9=Me and Bobby McGee
EXTD=
EXTT0=
EXTT1=
EXTT2=
EXTT3=
EXTT4=
EXTT5=
EXTT6=
EXTT7=
EXTT8=
EXTT9=
PLAYORDER=
